<svg version="1.2" xmlns="http://www.w3.org/2000/svg" viewBox="0 0 1058 435" width="250" height="103">
	<title>undraw_code_typing_re_p8b9-svg</title>
	<style>
		.s0 { fill: #e6e6e6 } 
		.s1 { fill: #6c63ff } 
		.s2 { fill: #a0616a } 
		.s3 { fill: #2f2e41 } 
		.s4 { fill: #cccccc } 
		.s5 { fill: #ffb8b8 } 
		.s6 { fill: #3f3d56 } 
	</style>
	<path id="Layer" class="s0" d="m643.5 221.7l61.9-61.7-61.9-61.8 18.8-18.8 80.9 80.6-80.9 80.5-18.8-18.8z"/>
	<path id="Layer" class="s0" d="m466.6 135.2h25.2v25.2h-25.2z"/>
	<path id="Layer" class="s0" d="m567.8 135.2h25.2v25.2h-25.2z"/>
	<path id="Layer" class="s0" d="m517.2 135.2h25.2v25.2h-25.2z"/>
	<path id="Layer" class="s0" d="m432.5 221.1l-62-61.8 61.9-61.7-18.9-18.8-80.7 80.5 80.8 80.6 18.9-18.8z"/>
	<path id="Layer" class="s1" d="m643.5 209.8l61.9-61.8-61.9-61.7 18.8-18.8 80.9 80.5-80.9 80.6-18.8-18.8z"/>
	<path id="Layer" class="s1" d="m466.6 152.4h25.2v-25.2h-25.2zm126.4-25.1h-25.2v25.1h25.2zm-75.8 25.2h25.2v-25.2h-25.2z"/>
	<path id="Layer" class="s1" d="m432.5 209.1l-62-61.7 61.9-61.8-18.9-18.8-80.7 80.6 80.8 80.6 18.9-18.9z"/>
	<path id="Layer" class="s2" d="m129.3 410.4l14.1 3.5 19.8-52.8-20.8-5-13.1 54.3z"/>
	<path id="Layer" class="s3" d="m122.6 423.1l4.4-17.9 27.5 6.7c2.3 0.5 4.5 1.5 6.4 2.9 1.9 1.4 3.5 3.2 4.8 5.2 1.2 2 2 4.3 2.4 6.6 0.4 2.3 0.3 4.7-0.3 7l-0.1 0.4z"/>
	<path id="Layer" class="s2" d="m191.7 420.1l14.5-0.1 6.9-55.9h-21.4v55.9z"/>
	<path id="Layer" class="s3" d="m188.2 415.5h28.4c2.3 0 4.7 0.5 6.8 1.4 2.2 0.9 4.2 2.2 5.9 3.9 1.7 1.6 3 3.6 3.9 5.8 0.9 2.2 1.4 4.5 1.4 6.9v0.4h-46.4z"/>
	<path id="Layer" class="s3" d="m188.3 400.7l2.4-87-3.2-35.3-6.3 27.2-27.4 89.2-23.6-6.2 27.4-96.2-6-61.8 17.1-10.9h0.2l58.3 10.7-14.1 167.8z"/>
	<path id="Layer" class="s4" d="m211.4 242.5c-4.7 0-10.2-1.5-16.3-5.8-19.6-13.8-42.9 1.1-43.1 1.2l-1 0.6 0.1-1.1c0-0.8 2.3-80.7 2.3-106.4 0-26.6 17.4-46 22.7-51.3 5.2-5.2 9.6-5.1 15.1-4.9q1.5 0 3 0c7.3 0 14.3 7 14.6 7.3l0.2 0.1v0.2l20.1 151.6-0.1 0.2c-0.1 0.2-6.7 8.3-17.6 8.3z"/>
	<path id="Layer" class="s2" d="m222.8 50.7c-7.7 14.1-25.3 19.3-39.4 11.6-14.1-7.7-19.3-25.3-11.6-39.4 7.7-14.1 25.3-19.3 39.4-11.6 14.1 7.7 19.3 25.3 11.6 39.4z"/>
	<path id="Layer" class="s2" d="m241.8 266.8c-1.4-1-2.5-2.4-3.3-3.9-0.8-1.6-1.3-3.3-1.3-5-0.1-1.8 0.2-3.5 0.9-5.1 0.7-1.6 1.7-3 3-4.2l-16.5-38.9 21.6 4 12.3 36.3c1.9 2.3 2.8 5.2 2.6 8.1-0.2 2.9-1.4 5.7-3.5 7.8-2 2-4.8 3.3-7.7 3.5-2.9 0.1-5.8-0.8-8.1-2.6z"/>
	<path id="Layer" class="s4" d="m237.1 244.7l-29.8-60.8-13.1-45.8v-39.8c0.1-0.1 3.1-15.6 14.5-14.5 10.4 1 15.9 6 18.6 16.9 2.3 9.2-0.8 36.5-1.1 39.1 2 4.7 31.9 76.1 27 84.7q-0.1 0.2-0.2 0.3-0.1 0.1-0.2 0.2-0.1 0.1-0.2 0.2-0.1 0.1-0.2 0.1l5.3 11.3z"/>
	<path id="Layer" class="s3" d="m193.6 47.7c3.5 0.5 6.1-3.1 7.3-6.4 1.2-3.2 2.2-7.1 5.2-8.9 4.1-2.4 9.4 0.5 14.2-0.3 5.3-0.9 8.8-6.5 9-11.9 0.3-5.5-1.8-10.7-4-15.7l-0.7 6.2q0.1-1.5-0.2-3.1-0.4-1.5-1.1-2.9-0.7-1.4-1.7-2.6-1.1-1.2-2.4-2.1l1 9.1c-0.2-1.3-0.7-2.5-1.3-3.5-0.7-1.1-1.6-2.1-2.6-2.8-1-0.7-2.2-1.3-3.4-1.6-1.3-0.3-2.6-0.3-3.8-0.1l0.1 5.4c-6.1-0.7-12.4-1.4-18.6-0.9-6.1 0.6-12.4 2.5-17.1 6.6-7 6.1-9.5 16.1-8.7 25.4 0.9 9.3 4.7 17.9 8.7 26.3 1 2.2 2.4 4.5 4.7 4.8 2.1 0.3 4-1.5 4.6-3.5q0.2-0.8 0.3-1.5 0.1-0.8 0.1-1.6 0-0.8-0.1-1.6-0.1-0.8-0.3-1.5c-0.6-3.1-1.3-6.3-0.8-9.5 0.6-3.1 2.8-6.2 6-6.6 3.1-0.3 6.3 3.3 4.8 6.1z"/>
	<path id="Layer" class="s5" d="m912.6 263c-1-1.2-1.7-2.5-2.1-3.9-0.4-1.4-0.5-2.9-0.3-4.3 0.2-1.5 0.8-2.9 1.6-4.1 0.8-1.2 1.9-2.2 3.1-3l-7.4-34.9 17.3 6.7 4.4 32.2c1.2 2.2 1.4 4.7 0.8 7.1-0.6 2.4-2 4.5-4.1 5.9-2 1.4-4.5 2-7 1.7-2.4-0.4-4.7-1.6-6.3-3.4z"/>
	<path id="Layer" class="s4" d="m910.6 235.7l-0.1-0.4c-9.3-34.5-19-70.3-30.8-109.2v-0.2l0.2-0.2c6.6-3.8 16.5-3.6 23 0.6q2.2 1.4 3.9 3.5 1.7 2 2.7 4.4 1 2.5 1.2 5.1 0.2 2.6-0.4 5.2l8.6 44.9c3.5 14.6 7.2 29.8 10.6 44.8l0.1 0.4h-0.5c-6.3 0.4-12.8 0.8-18 1.1z"/>
	<path id="Layer" class="s5" d="m831.2 421.7h-12.3l-5.8-47.2h18.1v47.2z"/>
	<path id="Layer" class="s3" d="m834.3 433.6h-39.5v-0.5c0-2 0.4-4 1.2-5.9 0.7-1.8 1.9-3.5 3.3-4.9 1.4-1.5 3.1-2.6 5-3.4 1.9-0.8 3.9-1.2 5.9-1.2h24.1z"/>
	<path id="Layer" class="s5" d="m946.7 411.6l-11.7 3.8-19.9-43.3 17.3-5.5 14.3 45z"/>
	<path id="Layer" class="s3" d="m915.6 434l-0.1-0.5c-0.6-1.9-0.8-3.9-0.7-5.9 0.2-2 0.8-4 1.7-5.8 0.9-1.8 2.2-3.4 3.7-4.7 1.6-1.3 3.4-2.3 5.3-2.9l23-7.3 4.8 15.1z"/>
	<path id="Layer" class="s5" d="m884.7 94.4c-13.6 0-24.6-10.9-24.6-24.5 0-13.6 11-24.6 24.6-24.6 13.5 0 24.5 11 24.5 24.6 0 13.6-11 24.5-24.5 24.5z"/>
	<path id="Layer" class="s3" d="m895.7 65.3c0.1-9.9-4-19.7-10.4-24.6-1.5-1.2-3.2-2.1-5-2.7-1.8-0.7-3.7-1-5.7-0.9-1.9 0-3.8 0.4-5.5 1.1-1.8 0.6-3.5 1.6-5 2.8-6.3 5.2-10.2 15.2-9.9 25.1 14.2 0 28.3 0 41.5-0.8z"/>
	<path id="Layer" class="s3" d="m838.2 406.5h-0.5c-10.7-1.1-21.7-2.2-32.1-2.3h-0.6l0.1-0.5c2.5-17.9 3.5-36.5 4.5-54.5 1-17.8 2.1-36.1 4.5-53.6q1.5-7 3-13.8c8.2-38.1 15.9-74 31.8-109.6l0.2-0.3h0.4c14.9 1.8 29.3 7.3 40.5 15.4l0.2 0.2v0.2c-0.2 5.6-0.5 11.3-0.1 16.5 2.5 3.5 4.6 7.3 6.2 11.2 1.7 4 2.9 8.2 3.6 12.5 0.7 4.2 0.8 8.6 0.5 12.9-0.3 4.3-1.1 8.5-2.4 12.7 4.4 14.6 9 29.8 13.6 44.8 11.2 30.8 22.9 62.7 34.8 95.1l0.2 0.5-0.5 0.1c-8.6 2-17.5 4.1-26.2 4.9l-0.4 0.1-0.1-0.3q-8.4-15.6-15.9-31.5-7.6-15.9-14.4-32.2-6.7-16.3-12.7-32.9-6-16.6-11.1-33.5c-3 9.1-7.3 17.3-11.4 25.3q-1.5 2.7-2.9 5.4-1.4 2.8-2.7 5.6-1.4 2.8-2.6 5.6-1.2 2.9-2.3 5.8c-1.9 15.1-2.3 31.5-2.8 47.3-0.5 15-0.9 29.1-2.4 42.4z"/>
	<path id="Layer" class="s3" d="m876.3 41.1c10.6-2.3 22.4-0.1 30.8 7.1 8.3 7.2 12.6 19.6 9.1 30.3-3.4 10.6-15.1 18.1-25.6 15.4 3-8.5-0.4-19-7.8-23.9-8.7-5.8-11.1-19.7-6.5-28.9z"/>
	<path id="Layer" class="s4" d="m889.2 188.4l-0.4-0.2c-13.6-6.2-26.9-11-39.4-15.3l-0.3-0.1v-1.1l0.2 0.1q0.1-0.2 0.2-0.4 0.2-0.5 0.4-0.8c1-2.1 1.8-4.1 2.6-6.1 0.9-2.1 1.7-4.2 2.8-6.4q-2-2-3.3-4.5-1.4-2.5-2-5.3-0.5-2.8-0.3-5.6 0.3-2.8 1.3-5.4c2.8-6.6 9.8-11.7 17.2-12.5 2.7-7.5 8.7-23.1 8.7-23.1 0 0 12.7-0.4 17.8-1h0.1 0.1c11.1 2.4 20.4 13 22.6 25.6 1.8 10.7-1 22.9-7.9 34.4q-1.3 2.1-2.7 4.1-1.4 2.1-2.9 4.1-1.4 2-3 4-1.5 2-3.1 3.9c-3.1 3.9-6 7.5-8.5 11.2z"/>
	<path id="Layer" class="s3" d=""/>
	<path id="Layer" class="s3" d="m913.8 55.7c-7.5-1.1-13.3-8.7-12.5-16.2 0.9-7.5 8.3-13.6 15.8-13.1 7.5 0.6 13.9 7.8 13.6 15.3-0.3 7.6-7.4 15.4-16.9 14z"/>
	<path id="Layer" class="s3" d="m912.6 50.8c-7.4-1.1-13.3-8.7-12.4-16.2q0.2-1.9 1-3.7 0.7-1.8 1.9-3.3 1.2-1.5 2.7-2.7 1.5-1.2 3.3-2c-6.1 1.3-11.2 6.5-11.9 12.7-0.9 7.5 5 15.1 12.4 16.2q1.1 0.2 2.1 0.2 1.1 0 2.1-0.1 1-0.2 2-0.5 1-0.3 2-0.7-0.6 0.1-1.3 0.2-0.6 0.1-1.3 0.1-0.6 0-1.3 0-0.6-0.1-1.3-0.2z"/>
	<path id="Layer" class="s5" d="m768.1 182.8c0.7-1.3 1.7-2.4 2.9-3.2 1.2-0.9 2.5-1.5 4-1.8 1.4-0.2 2.9-0.2 4.3 0.2 1.5 0.3 2.8 1 3.9 2l30.5-18.7-0.6 18.6-28.9 14.8c-1.7 1.8-4 3-6.4 3.2-2.5 0.2-5-0.5-6.9-2-2-1.4-3.4-3.6-3.9-6-0.5-2.4-0.2-4.9 1.1-7.1z"/>
	<path id="Layer" class="s4" d="m793.1 171.9l0.3-0.2c29.5-20.4 60-41.4 92.7-65.5l0.3-0.1 0.2 0.2c5.8 4.9 8.8 14.3 7.1 21.8q-0.6 2.6-2 4.9-1.3 2.2-3.3 4-2 1.7-4.4 2.8-2.4 1.1-5 1.4l-39.4 23.1c-12.7 8.2-25.8 16.6-38.7 24.9l-0.4 0.2-0.2-0.5c-2.5-5.8-5.1-11.8-7-16.6z"/>
	<path id="Layer" class="s6" d="m382 434.7h-381q-0.4 0-0.7-0.2-0.3-0.3-0.3-0.8 0-0.4 0.3-0.7 0.3-0.2 0.7-0.3h381q0.4 0.1 0.7 0.3 0.3 0.3 0.3 0.7 0 0.5-0.3 0.8-0.3 0.2-0.7 0.2z"/>
	<path id="Layer" class="s6" d="m1057 434.7h-381q-0.4 0-0.7-0.2-0.3-0.3-0.3-0.8 0-0.4 0.3-0.7 0.3-0.2 0.7-0.3h381q0.4 0.1 0.7 0.3 0.3 0.3 0.3 0.7 0 0.5-0.3 0.8-0.3 0.2-0.7 0.2z"/>
</svg>