<svg version="1.2" xmlns="http://www.w3.org/2000/svg" viewBox="0 0 757 474" width="250" height="157">
	<title>undraw_mind_map_re_nlb6-svg</title>
	<style>
		.s0 { fill: #a0616a } 
		.s1 { fill: #6c63ff } 
		.s2 { fill: #2f2e41 } 
		.s3 { fill: #3f3d56 } 
		.s4 { fill: #cccccc } 
	</style>
	<path id="Layer" class="s0" d="m102.8 315.9c0.7-1.3 1.2-2.7 1.4-4.1 0.2-1.5 0-3-0.5-4.4-0.4-1.4-1.2-2.6-2.2-3.7-1-1.1-2.3-1.9-3.6-2.4l1.4-35.7-15.9 9.5 1.1 32.5c-0.8 2.3-0.6 4.9 0.4 7.2 1 2.2 2.8 4 5 5.1 2.3 1 4.8 1.1 7.2 0.4 2.4-0.7 4.4-2.3 5.7-4.4z"/>
	<path id="Layer" class="s1" d="m81.6 292.7l14.1 2.3q0.9 0.1 1.8-0.1 0.9-0.2 1.6-0.7 0.7-0.6 1.2-1.4 0.4-0.8 0.6-1.7l5.9-45 29.6-40.4c1.1-1.5 1.8-3.2 2.3-5 0.4-1.8 0.4-3.7 0.1-5.5-0.4-1.9-1.1-3.6-2.1-5.1-1.1-1.6-2.4-2.9-4-3.9-1.5-0.9-3.2-1.6-4.9-1.9-1.8-0.3-3.6-0.3-5.3 0.1-1.7 0.4-3.4 1.1-4.9 2.1-1.4 1.1-2.7 2.3-3.6 3.9l-30.2 47.2-6 50.2q0 0.1 0 0.2 0 0.1 0 0.2 0 0.2 0 0.3 0 0.1 0 0.2 0.1 0.8 0.4 1.4 0.3 0.7 0.8 1.3 0.5 0.5 1.2 0.9 0.6 0.3 1.4 0.4z"/>
	<path id="Layer" class="s0" d="m130.3 459.9h12.2l5.9-47.3h-18.1v47.3z"/>
	<path id="Layer" class="s2" d="m151.3 456.4h-23.7v14.8h38.6c0-1.9-0.4-3.8-1.2-5.7-0.7-1.8-1.8-3.4-3.2-4.8-1.4-1.4-3-2.5-4.8-3.2-1.8-0.8-3.8-1.1-5.7-1.1z"/>
	<path id="Layer" class="s0" d="m78.5 438.9l9.2 8.1 34.2-33.6-11.9-9.9-31.5 35.4z"/>
	<path id="Layer" class="s2" d="m96.6 450.2l-17.7-15.7-9.9 11.1 28.8 25.6c1.3-1.4 2.3-3.1 2.9-5 0.7-1.8 1-3.8 0.8-5.7-0.1-2-0.6-3.9-1.4-5.6-0.9-1.8-2.1-3.4-3.5-4.7z"/>
	<path id="Layer" class="s0" d="m253.5 189.5c-1.5-0.4-2.9-0.4-4.4-0.1-1.4 0.3-2.8 0.9-3.9 1.8-1.2 0.9-2.2 2-2.9 3.3-0.7 1.3-1.1 2.8-1.1 4.2l-34.4 10 14.2 12 30.4-11.3c2.5 0 4.8-0.9 6.7-2.6 1.8-1.7 2.9-4 3.2-6.4 0.3-2.5-0.4-5-1.8-7-1.5-2-3.6-3.4-6-3.9z"/>
	<path id="Layer" class="s0" d="m146.5 106.1c13.5 0 24.5 10.9 24.5 24.5 0 13.6-11 24.6-24.5 24.6-13.6 0-24.6-11-24.6-24.6 0-13.6 11-24.5 24.6-24.5z"/>
	<path id="Layer" class="s2" d="m128.8 451l17-1.4q0.9 0 1.6-0.4 0.8-0.3 1.3-0.9 0.6-0.6 0.9-1.4 0.3-0.8 0.4-1.6l4.7-143.8q0.1-0.9-0.2-1.6-0.3-0.8-0.8-1.5-0.6-0.6-1.3-1-0.7-0.4-1.5-0.5l-34.1-4.8q-1-0.1-2 0.2-1.1 0.4-1.8 1.1-0.8 0.8-1.1 1.8-0.3 1.1-0.1 2.1l13 76.3q0 0.1 0 0.1 0 0.1 0 0.2 0 0.1 0 0.2 0.1 0 0 0.1l-0.9 72.3q0 0.9 0.3 1.7 0.4 0.8 1 1.5 0.6 0.6 1.5 1 0.8 0.3 1.7 0.3 0.2 0 0.4 0z"/>
	<path id="Layer" class="s2" d="m106.9 433.8l58.6-65.3q0.4-0.3 0.6-0.7 0.2-0.5 0.4-0.9 0.1-0.5 0.2-0.9 0-0.5 0-1l-7.4-69.4q-0.1-0.8-0.5-1.6-0.5-0.8-1.1-1.3-0.7-0.6-1.5-0.9-0.8-0.2-1.7-0.2l-36 2.4q-1 0.1-1.9 0.6-0.9 0.5-1.5 1.4-0.6 0.9-0.8 1.9-0.1 1.1 0.2 2l21.6 63.8q0.2 0.5 0.2 1 0 0.4-0.1 0.9-0.1 0.5-0.3 0.9-0.3 0.4-0.6 0.8l-49.8 51.6q-0.7 0.7-1 1.7-0.3 1-0.2 2 0.1 1 0.7 1.9 0.6 0.8 1.5 1.4l14.8 8.7q0.7 0.4 1.4 0.6 0.8 0.1 1.6 0 0.7-0.1 1.4-0.5 0.7-0.4 1.2-0.9z"/>
	<path id="Layer" class="s1" d="m150.9 170.4c0 0-15-13-22-6 0 0-32.5 20.5-18.5 76.5 0 0-12 54-7 56 5 2 55.5 9.5 59.5 3.5 4-6 6-98-12-130z"/>
	<path id="Layer" class="s1" d="m238.2 216.9l-2.3-14.1q-0.2-0.9-0.6-1.7-0.5-0.8-1.3-1.3-0.7-0.5-1.6-0.7-0.9-0.2-1.8 0l-44.6 8.5-47.7-15.2c-1.8-0.6-3.6-0.8-5.5-0.6-1.8 0.2-3.6 0.7-5.2 1.6-1.7 0.9-3.1 2.2-4.2 3.6-1.1 1.5-1.9 3.2-2.4 5-0.4 1.7-0.5 3.5-0.3 5.3 0.3 1.7 0.9 3.4 1.8 5 0.9 1.5 2.1 2.8 3.6 3.9 1.4 1.1 3 1.8 4.7 2.3l54.4 13.7 49.5-10.2q0.1 0 0.2 0 0.1 0 0.2-0.1 0.2 0 0.3-0.1 0.1 0 0.2-0.1 0.7-0.3 1.2-0.8 0.6-0.5 0.9-1.1 0.4-0.7 0.5-1.4 0.1-0.8 0-1.5z"/>
	<path id="Layer" class="s2" d="m135.9 150.6c-2.2-5.2-4.1-12.2 0.2-15.8 2.5-2.2 6.1-2.2 9.3-2.4 9.3-0.8 18.7-5 23.3-13.1 4.5-8.1 1.9-20.1-6.6-23.7-5.7-2.5-12.3-0.8-18.3 0.9l-18 5.1c-5.3 1.5-10.9 3.2-14.8 7.2-6.1 6.4-5.7 17.2-0.8 24.6 4.9 7.4 12.2 15.1 20.7 18z"/>
	<path id="Layer" class="s3" d="m1 473.4h248q0.5 0 0.7-0.3 0.3-0.3 0.3-0.7 0-0.5-0.3-0.7-0.2-0.3-0.7-0.3h-248q-0.4 0-0.7 0.3-0.3 0.2-0.3 0.7 0 0.4 0.3 0.7 0.3 0.3 0.7 0.3z"/>
	<path id="Layer" fill-rule="evenodd" class="s3" d="m263 0h487q1.4 0 2.7 0.5 1.3 0.6 2.2 1.6 1 0.9 1.6 2.2 0.5 1.3 0.5 2.7v360q0 1.4-0.5 2.7-0.6 1.3-1.6 2.2-0.9 1-2.2 1.6-1.3 0.5-2.7 0.5h-487q-1.4 0-2.7-0.5-1.3-0.6-2.2-1.6-1-0.9-1.6-2.2-0.5-1.3-0.5-2.7v-360q0-1.4 0.5-2.7 0.6-1.3 1.6-2.2 0.9-1 2.2-1.6 1.3-0.5 2.7-0.5zm-5 367q0 1 0.4 1.9 0.4 0.9 1.1 1.6 0.7 0.7 1.6 1.1 0.9 0.4 1.9 0.4h487q1 0 1.9-0.4 0.9-0.4 1.6-1.1 0.7-0.7 1.1-1.6 0.4-0.9 0.4-1.9v-360q0-1-0.4-1.9-0.4-0.9-1.1-1.6-0.7-0.7-1.6-1.1-0.9-0.4-1.9-0.4h-487q-1 0-1.9 0.4-0.9 0.4-1.6 1.1-0.7 0.7-1.1 1.6-0.4 0.9-0.4 1.9z"/>
	<path id="Layer" class="s3" d="m756 28v2h-499v-2z"/>
	<path id="Layer" class="s3" d="m739 9c3.3 0 6 2.7 6 6 0 3.3-2.7 6-6 6-3.3 0-6-2.7-6-6 0-3.3 2.7-6 6-6z"/>
	<path id="Layer" class="s3" d="m721.8 9c3.3 0 6 2.7 6 6 0 3.3-2.7 6-6 6-3.4 0-6-2.7-6-6 0-3.3 2.6-6 6-6z"/>
	<path id="Layer" class="s3" d="m704.5 9c3.3 0 6 2.7 6 6 0 3.3-2.7 6-6 6-3.3 0-6-2.7-6-6 0-3.3 2.7-6 6-6z"/>
	<path id="Layer" class="s3" d="m455.2 311.3q0.2 0 0.4-0.1 0.1 0 0.3-0.2 0.1-0.1 0.2-0.3 0.1-0.2 0.1-0.4v-41q0-0.4-0.3-0.7-0.3-0.3-0.7-0.3-0.4 0-0.7 0.3-0.3 0.3-0.3 0.7v41q0 0.2 0.1 0.4 0 0.2 0.2 0.3 0.1 0.2 0.3 0.2 0.2 0.1 0.4 0.1z"/>
	<path id="Layer" class="s3" d="m456.5 253.3q0.1 0 0.2 0 0 0 0.1 0 0.1 0 0.1-0.1 0.1 0 0.2 0l56.8-33.1q0.3-0.2 0.4-0.6 0.1-0.4-0.1-0.8-0.2-0.4-0.6-0.5-0.4-0.1-0.7 0.1l-56.9 33.1q-0.2 0.2-0.4 0.5-0.1 0.3 0 0.7 0.1 0.3 0.3 0.5 0.3 0.2 0.6 0.2z"/>
	<path id="Layer" class="s3" d="m570.2 253.3q0.3 0 0.6-0.2 0.3-0.2 0.3-0.5 0.1-0.4 0-0.7-0.1-0.3-0.4-0.5l-56.8-33.1q-0.4-0.2-0.8-0.1-0.4 0.1-0.6 0.5-0.2 0.4-0.1 0.8 0.1 0.4 0.5 0.6l56.8 33.1q0 0 0.1 0 0.1 0.1 0.1 0.1 0.1 0 0.1 0 0.1 0 0.2 0z"/>
	<path id="Layer" class="s3" d="m397.5 303.3q0.1 0 0.2 0 0 0 0.1 0 0.1 0 0.1-0.1 0.1 0 0.2 0l56.8-33.1q0.3-0.2 0.4-0.6 0.1-0.4-0.1-0.8-0.2-0.4-0.6-0.5-0.4-0.1-0.7 0.1l-56.9 33.1q-0.2 0.2-0.4 0.5-0.1 0.3 0 0.7 0.1 0.3 0.3 0.5 0.3 0.2 0.6 0.2z"/>
	<path id="Layer" class="s3" d="m511.2 303.3q0.3 0 0.6-0.2 0.3-0.2 0.3-0.5 0.1-0.4 0-0.7-0.1-0.3-0.4-0.5l-56.8-33.1q-0.4-0.2-0.8-0.1-0.4 0.1-0.6 0.5-0.2 0.4-0.1 0.8 0.1 0.4 0.5 0.6l56.8 33.1q0 0 0.1 0 0.1 0.1 0.1 0.1 0.1 0 0.1 0 0.1 0 0.2 0z"/>
	<path id="Layer" class="s3" d="m513.2 202.3q0.2 0 0.4-0.1 0.1 0 0.3-0.2 0.1-0.1 0.2-0.3 0.1-0.2 0.1-0.4l0.1-36.4q0-0.2-0.1-0.4-0.1-0.1-0.2-0.3-0.2-0.1-0.3-0.2-0.2-0.1-0.4-0.1-0.2 0-0.4 0.1-0.2 0.1-0.3 0.2-0.2 0.2-0.3 0.3 0 0.2 0 0.4l-0.1 36.4q0 0.2 0.1 0.4 0 0.2 0.2 0.3 0.1 0.2 0.3 0.2 0.2 0.1 0.4 0.1z"/>
	<path id="Layer" class="s4" d="m500.2 221.2h26.1q0.9 0 1.7-0.3 0.8-0.4 1.5-1 0.6-0.6 1-1.5 0.3-0.8 0.3-1.7v-13.4q0-0.9-0.3-1.7-0.4-0.8-1-1.4-0.7-0.7-1.5-1-0.8-0.4-1.7-0.4h-26.1q-0.9 0-1.7 0.4-0.8 0.3-1.4 1-0.7 0.6-1 1.4-0.4 0.8-0.4 1.7v13.4q0 0.9 0.4 1.7 0.3 0.9 1 1.5 0.6 0.6 1.4 1 0.8 0.3 1.7 0.3z"/>
	<path id="Layer" class="s3" d="m543.4 153.2h55.4q0.4 0 0.7-0.3 0.3-0.3 0.3-0.7 0-0.4-0.3-0.7-0.3-0.3-0.7-0.3h-55.4q-0.4 0-0.7 0.3-0.3 0.3-0.3 0.7 0 0.4 0.3 0.7 0.3 0.3 0.7 0.3z"/>
	<path id="Layer" class="s3" d="m513.3 138.9q0.2 0 0.4-0.1 0.1 0 0.3-0.2 0.1-0.1 0.2-0.3 0.1-0.2 0.1-0.4v-34.6q0-0.4-0.3-0.7-0.3-0.3-0.7-0.3-0.4 0-0.7 0.3-0.3 0.3-0.3 0.7v34.6q0 0.2 0 0.4 0.1 0.2 0.3 0.3 0.1 0.2 0.3 0.2 0.2 0.1 0.4 0.1z"/>
	<path id="Layer" class="s3" d="m620.4 153.2q0 0 0.1 0 0.1 0 0.1 0 0.1-0.1 0.2-0.1 0 0 0.1 0l53.8-31.9q0.3-0.3 0.4-0.6 0.1-0.4-0.1-0.8-0.2-0.4-0.6-0.5-0.4-0.1-0.7 0.1l-53.8 31.9q-0.3 0.2-0.5 0.5-0.1 0.3 0 0.7 0.1 0.3 0.4 0.5 0.2 0.2 0.6 0.2z"/>
	<path id="Layer" class="s3" d="m674.2 185.1q0.3 0 0.6-0.2 0.2-0.2 0.3-0.5 0.1-0.4 0-0.7-0.1-0.3-0.4-0.5l-53.8-31.9q-0.4-0.2-0.8-0.1-0.4 0.1-0.6 0.5-0.2 0.3-0.1 0.7 0.1 0.4 0.5 0.7l53.8 31.9q0 0 0.1 0 0 0 0.1 0.1 0.1 0 0.1 0 0.1 0 0.2 0z"/>
	<path id="Layer" class="s4" d="m602.8 169.3h13.4q0.9 0 1.7-0.3 0.8-0.4 1.5-1 0.6-0.6 0.9-1.4 0.4-0.9 0.4-1.8v-26q0-0.9-0.4-1.7-0.3-0.9-0.9-1.5-0.7-0.6-1.5-1-0.8-0.3-1.7-0.3h-13.4q-0.9 0-1.7 0.3-0.9 0.4-1.5 1-0.6 0.6-1 1.5-0.3 0.8-0.3 1.7v26q0 0.9 0.3 1.8 0.4 0.8 1 1.4 0.6 0.6 1.5 1 0.8 0.3 1.7 0.3z"/>
	<path id="Layer" class="s4" d="m500.2 106h26.1q0.9 0 1.7-0.3 0.8-0.4 1.5-1 0.6-0.7 1-1.5 0.3-0.8 0.3-1.7v-13.4q0-0.9-0.3-1.7-0.4-0.8-1-1.5-0.7-0.6-1.5-0.9-0.8-0.4-1.7-0.4h-26.1q-0.9 0-1.7 0.4-0.8 0.3-1.4 0.9-0.7 0.7-1 1.5-0.4 0.8-0.4 1.7v13.4q0 0.9 0.4 1.7 0.3 0.8 1 1.5 0.6 0.6 1.4 1 0.8 0.3 1.7 0.3z"/>
	<path id="Layer" class="s4" d="m677.8 138.3h13.4q0.9 0 1.7-0.3 0.8-0.4 1.5-1 0.6-0.6 0.9-1.4 0.4-0.9 0.4-1.8v-26q0-0.9-0.4-1.7-0.3-0.9-0.9-1.5-0.7-0.6-1.5-1-0.8-0.3-1.7-0.3h-13.4q-0.9 0-1.7 0.3-0.9 0.4-1.5 1-0.6 0.6-1 1.5-0.3 0.8-0.3 1.7v26q0 0.9 0.3 1.8 0.4 0.8 1 1.4 0.6 0.6 1.5 1 0.8 0.3 1.7 0.3z"/>
	<path id="Layer" class="s4" d="m677.8 201.3h13.4q0.9 0 1.7-0.3 0.8-0.4 1.5-1 0.6-0.6 0.9-1.4 0.4-0.9 0.4-1.8v-26q0-0.9-0.4-1.7-0.3-0.9-0.9-1.5-0.7-0.6-1.5-1-0.8-0.3-1.7-0.3h-13.4q-0.9 0-1.7 0.3-0.9 0.4-1.5 1-0.6 0.6-1 1.5-0.3 0.8-0.3 1.7v26q0 0.9 0.3 1.8 0.4 0.8 1 1.4 0.6 0.6 1.5 1 0.8 0.3 1.7 0.3z"/>
	<path id="Layer" class="s3" d="m427.7 153.2h55.5q0.4 0 0.7-0.3 0.3-0.3 0.3-0.7 0-0.4-0.3-0.7-0.3-0.3-0.7-0.3h-55.5q-0.4 0-0.7 0.3-0.3 0.3-0.3 0.7 0 0.4 0.3 0.7 0.3 0.3 0.7 0.3z"/>
	<path id="Layer" class="s3" d="m406.2 153.2q0.3 0 0.6-0.2 0.2-0.2 0.3-0.5 0.1-0.4 0-0.7-0.1-0.3-0.4-0.5l-53.8-31.9q-0.4-0.2-0.8-0.1-0.4 0.1-0.6 0.5-0.2 0.4-0.1 0.8 0.1 0.4 0.5 0.6l53.8 31.9q0 0 0.1 0 0 0 0.1 0.1 0.1 0 0.1 0 0.1 0 0.2 0z"/>
	<path id="Layer" class="s3" d="m352.4 185.1q0 0 0.1 0 0.1 0 0.1 0 0.1-0.1 0.2-0.1 0 0 0.1 0l53.8-31.9q0.3-0.3 0.4-0.7 0.1-0.4-0.1-0.7-0.2-0.4-0.6-0.5-0.4-0.1-0.7 0.1l-53.8 31.9q-0.3 0.2-0.5 0.5-0.1 0.3 0 0.7 0.1 0.3 0.4 0.5 0.2 0.2 0.6 0.2z"/>
	<path id="Layer" class="s4" d="m410.4 169.3h13.3q0.9 0 1.8-0.3 0.8-0.4 1.4-1 0.7-0.6 1-1.4 0.3-0.9 0.3-1.8v-26q0-0.9-0.3-1.7-0.3-0.9-1-1.5-0.6-0.6-1.4-1-0.9-0.3-1.8-0.3h-13.3q-0.9 0-1.8 0.3-0.8 0.4-1.4 1-0.6 0.6-1 1.5-0.3 0.8-0.3 1.7v26q0 0.9 0.3 1.8 0.4 0.8 1 1.4 0.6 0.6 1.4 1 0.9 0.3 1.8 0.3z"/>
	<path id="Layer" class="s4" d="m335.4 138.3h13.3q0.9 0 1.8-0.3 0.8-0.4 1.4-1 0.7-0.6 1-1.4 0.3-0.9 0.3-1.8v-26q0-0.9-0.3-1.7-0.3-0.9-1-1.5-0.6-0.6-1.4-1-0.9-0.3-1.8-0.3h-13.3q-0.9 0-1.8 0.3-0.8 0.4-1.4 1-0.6 0.6-1 1.5-0.3 0.8-0.3 1.7v26q0 0.9 0.3 1.8 0.4 0.8 1 1.4 0.6 0.6 1.4 1 0.9 0.3 1.8 0.3z"/>
	<path id="Layer" class="s4" d="m335.4 201.3h13.3q0.9 0 1.8-0.3 0.8-0.4 1.4-1 0.7-0.6 1-1.4 0.3-0.9 0.3-1.8v-26q0-0.9-0.3-1.7-0.3-0.9-1-1.5-0.6-0.6-1.4-1-0.9-0.3-1.8-0.3h-13.3q-0.9 0-1.8 0.3-0.8 0.4-1.4 1-0.6 0.6-1 1.5-0.3 0.8-0.3 1.7v26q0 0.9 0.3 1.8 0.4 0.8 1 1.4 0.6 0.6 1.4 1 0.9 0.3 1.8 0.3z"/>
	<path id="Layer" class="s4" d="m558.2 272.2h26.1q0.9 0 1.7-0.3 0.8-0.4 1.5-1 0.6-0.6 1-1.5 0.3-0.8 0.3-1.7v-13.4q0-0.9-0.3-1.7-0.4-0.8-1-1.4-0.7-0.7-1.5-1-0.8-0.4-1.7-0.4h-26.1q-0.9 0-1.7 0.4-0.8 0.3-1.4 1-0.7 0.6-1 1.4-0.4 0.8-0.4 1.7v13.4q0 0.9 0.4 1.7 0.3 0.9 1 1.5 0.6 0.6 1.4 1 0.8 0.3 1.7 0.3z"/>
	<path id="Layer" class="s4" d="m442.4 272.2h26.1q0.9 0 1.7-0.3 0.8-0.4 1.5-1 0.6-0.6 0.9-1.5 0.4-0.8 0.4-1.7v-13.4q0-0.9-0.4-1.7-0.3-0.8-0.9-1.4-0.7-0.7-1.5-1-0.8-0.4-1.7-0.4h-26.1q-0.9 0-1.7 0.4-0.8 0.3-1.5 1-0.6 0.6-0.9 1.4-0.4 0.8-0.4 1.7v13.4q0 0.9 0.4 1.7 0.3 0.9 0.9 1.5 0.7 0.6 1.5 1 0.8 0.3 1.7 0.3z"/>
	<path id="Layer" class="s4" d="m495.4 321.2h26.1q0.9 0 1.7-0.3 0.8-0.4 1.5-1 0.6-0.6 0.9-1.5 0.4-0.8 0.4-1.7v-13.4q0-0.9-0.4-1.7-0.3-0.8-0.9-1.4-0.7-0.7-1.5-1-0.8-0.4-1.7-0.4h-26.1q-0.9 0-1.7 0.4-0.8 0.3-1.5 1-0.6 0.6-0.9 1.4-0.4 0.8-0.4 1.7v13.4q0 0.9 0.4 1.7 0.3 0.9 0.9 1.5 0.7 0.6 1.5 1 0.8 0.3 1.7 0.3z"/>
	<path id="Layer" class="s4" d="m384.4 321.2h26.1q0.9 0 1.7-0.3 0.8-0.4 1.5-1 0.6-0.6 0.9-1.5 0.4-0.8 0.4-1.7v-13.4q0-0.9-0.4-1.7-0.3-0.8-0.9-1.4-0.7-0.7-1.5-1-0.8-0.4-1.7-0.4h-26.1q-0.9 0-1.7 0.4-0.8 0.3-1.5 1-0.6 0.6-0.9 1.4-0.4 0.8-0.4 1.7v13.4q0 0.9 0.4 1.7 0.3 0.9 0.9 1.5 0.7 0.6 1.5 1 0.8 0.3 1.7 0.3z"/>
	<path id="Layer" class="s4" d="m442.4 321.2h26.1q0.9 0 1.7-0.3 0.8-0.4 1.5-1 0.6-0.6 0.9-1.5 0.4-0.8 0.4-1.7v-13.4q0-0.9-0.4-1.7-0.3-0.8-0.9-1.4-0.7-0.7-1.5-1-0.8-0.4-1.7-0.4h-26.1q-0.9 0-1.7 0.4-0.8 0.3-1.5 1-0.6 0.6-0.9 1.4-0.4 0.8-0.4 1.7v13.4q0 0.9 0.4 1.7 0.3 0.9 0.9 1.5 0.7 0.6 1.5 1 0.8 0.3 1.7 0.3z"/>
	<path id="Layer" class="s1" d="m481.6 169.6h63.3q0.9 0 1.8-0.3 0.8-0.4 1.4-1 0.7-0.7 1-1.5 0.3-0.8 0.3-1.7v-25.8q0-0.9-0.3-1.7-0.3-0.8-1-1.5-0.6-0.6-1.4-1-0.9-0.3-1.8-0.3h-63.3q-0.9 0-1.7 0.3-0.8 0.4-1.5 1-0.6 0.7-1 1.5-0.3 0.8-0.3 1.7v25.8q0 0.9 0.3 1.7 0.4 0.8 1 1.5 0.7 0.6 1.5 1 0.8 0.3 1.7 0.3z"/>
</svg>